# MagicaVoxel @ Ephtracy

# group
o 

# material
mtllib cenoura.mtl
usemtl palette

# normals
vn -1 0 0
vn 1 0 0
vn 0 0 1
vn 0 0 -1
vn 0 -1 0
vn 0 1 0

# texcoords
vt 0.0917969 0.5
vt 0.650391 0.5

# verts
v -0.5 0.5 0
v -0.5 0.5 -0.1
v -0.5 1.3 0
v -0.5 1.3 -0.1
v -0.4 0.2 0
v -0.4 0.2 -0.1
v -0.4 0.4 0.1
v -0.4 0.4 0
v -0.4 0.4 -0.1
v -0.4 0.4 -0.2
v -0.4 0.5 0
v -0.4 0.5 -0.1
v -0.4 1.3 0
v -0.4 1.3 -0.1
v -0.4 1.4 0.1
v -0.4 1.4 0
v -0.4 1.4 -0.1
v -0.4 1.4 -0.2
v -0.4 1.5 0
v -0.4 1.5 -0.1
v -0.4 1.7 0
v -0.4 1.7 -0.1
v -0.4 1.8 0.2
v -0.4 1.8 0.1
v -0.4 1.8 0
v -0.4 1.8 -0.1
v -0.4 1.8 -0.3
v -0.4 1.9 0.2
v -0.4 1.9 0.1
v -0.4 1.9 -0.1
v -0.4 1.9 -0.3
v -0.3 0 0
v -0.3 0 -0.1
v -0.3 0.2 0.1
v -0.3 0.2 0
v -0.3 0.2 -0.1
v -0.3 0.2 -0.2
v -0.3 0.4 0.1
v -0.3 0.4 0
v -0.3 0.4 -0.1
v -0.3 0.4 -0.2
v -0.3 0.5 0.2
v -0.3 0.5 0.1
v -0.3 0.5 -0.2
v -0.3 0.5 -0.3
v -0.3 1.3 0.2
v -0.3 1.3 0.1
v -0.3 1.3 -0.2
v -0.3 1.3 -0.3
v -0.3 1.4 0.1
v -0.3 1.4 0
v -0.3 1.4 -0.1
v -0.3 1.4 -0.2
v -0.3 1.5 0.1
v -0.3 1.5 0
v -0.3 1.5 -0.1
v -0.3 1.5 -0.2
v -0.3 1.6 0
v -0.3 1.6 -0.1
v -0.3 1.7 0.1
v -0.3 1.7 0
v -0.3 1.7 -0.1
v -0.3 1.7 -0.2
v -0.3 1.8 0.3
v -0.3 1.8 0.2
v -0.3 1.8 0.1
v -0.3 1.8 0
v -0.3 1.8 -0.1
v -0.3 1.8 -0.2
v -0.3 1.9 0.3
v -0.3 1.9 0.2
v -0.3 1.9 0.1
v -0.3 1.9 -0.1
v -0.3 1.9 -0.3
v -0.3 1.9 -0.4
v -0.3 2 0.2
v -0.3 2 0.1
v -0.3 2 -0.1
v -0.3 2 -0.2
v -0.3 2 -0.3
v -0.3 2 -0.4
v -0.3 2.1 -0.2
v -0.3 2.1 -0.3
v -0.2 0 0
v -0.2 0 -0.1
v -0.2 0.2 0.1
v -0.2 0.2 0
v -0.2 0.2 -0.1
v -0.2 0.2 -0.2
v -0.2 0.4 0.1
v -0.2 0.4 0
v -0.2 0.4 -0.1
v -0.2 0.4 -0.2
v -0.2 0.5 0.2
v -0.2 0.5 0.1
v -0.2 0.5 -0.2
v -0.2 0.5 -0.3
v -0.2 1.3 0.2
v -0.2 1.3 0.1
v -0.2 1.3 -0.2
v -0.2 1.3 -0.3
v -0.2 1.4 0.1
v -0.2 1.4 0
v -0.2 1.4 -0.1
v -0.2 1.4 -0.2
v -0.2 1.5 0.1
v -0.2 1.5 0
v -0.2 1.5 -0.1
v -0.2 1.5 -0.2
v -0.2 1.6 0
v -0.2 1.6 -0.1
v -0.2 1.7 0.1
v -0.2 1.7 0
v -0.2 1.7 -0.1
v -0.2 1.7 -0.2
v -0.2 1.8 0.3
v -0.2 1.8 0.2
v -0.2 1.8 0.1
v -0.2 1.8 0
v -0.2 1.8 -0.1
v -0.2 1.8 -0.2
v -0.2 1.8 -0.3
v -0.2 1.9 0.3
v -0.2 1.9 0.2
v -0.2 1.9 0.1
v -0.2 1.9 0
v -0.2 1.9 -0.1
v -0.2 1.9 -0.2
v -0.2 1.9 -0.3
v -0.2 1.9 -0.4
v -0.2 2 0.2
v -0.2 2 0.1
v -0.2 2 -0.1
v -0.2 2 -0.2
v -0.2 2 -0.3
v -0.2 2 -0.4
v -0.2 2.1 -0.2
v -0.2 2.1 -0.3
v -0.1 0.2 0
v -0.1 0.2 -0.1
v -0.1 0.4 0.1
v -0.1 0.4 0
v -0.1 0.4 -0.1
v -0.1 0.4 -0.2
v -0.1 0.5 0
v -0.1 0.5 -0.1
v -0.1 1.3 0
v -0.1 1.3 -0.1
v -0.1 1.4 0.1
v -0.1 1.4 0
v -0.1 1.4 -0.1
v -0.1 1.4 -0.2
v -0.1 1.5 0
v -0.1 1.5 -0.1
v -0.1 1.7 0
v -0.1 1.7 -0.1
v -0.1 1.8 0.2
v -0.1 1.8 0
v -0.1 1.8 -0.1
v -0.1 1.8 -0.2
v -0.1 1.9 0.2
v -0.1 1.9 0
v -0.1 1.9 -0.1
v -0.1 1.9 -0.2
v -0.1 1.9 -0.3
v -0.1 2 -0.2
v -0.1 2 -0.3
v 0 0.5 0
v 0 0.5 -0.1
v 0 1.3 0
v 0 1.3 -0.1
v -0.3 1.8 0.3
v -0.3 1.9 0.3
v -0.2 1.8 0.3
v -0.2 1.9 0.3
v -0.4 1.8 0.2
v -0.4 1.9 0.2
v -0.3 0.5 0.2
v -0.3 1.3 0.2
v -0.3 1.8 0.2
v -0.3 1.9 0.2
v -0.3 2 0.2
v -0.2 0.5 0.2
v -0.2 1.3 0.2
v -0.2 1.8 0.2
v -0.2 1.9 0.2
v -0.2 2 0.2
v -0.1 1.8 0.2
v -0.1 1.9 0.2
v -0.4 0.4 0.1
v -0.4 1.4 0.1
v -0.3 0.2 0.1
v -0.3 0.4 0.1
v -0.3 0.5 0.1
v -0.3 1.3 0.1
v -0.3 1.4 0.1
v -0.3 1.5 0.1
v -0.3 1.7 0.1
v -0.3 1.8 0.1
v -0.2 0.2 0.1
v -0.2 0.4 0.1
v -0.2 0.5 0.1
v -0.2 1.3 0.1
v -0.2 1.4 0.1
v -0.2 1.5 0.1
v -0.2 1.7 0.1
v -0.2 1.8 0.1
v -0.1 0.4 0.1
v -0.1 1.4 0.1
v -0.5 0.5 0
v -0.5 1.3 0
v -0.4 0.2 0
v -0.4 0.4 0
v -0.4 0.5 0
v -0.4 1.3 0
v -0.4 1.4 0
v -0.4 1.5 0
v -0.4 1.7 0
v -0.4 1.8 0
v -0.3 0 0
v -0.3 0.2 0
v -0.3 0.4 0
v -0.3 1.4 0
v -0.3 1.5 0
v -0.3 1.6 0
v -0.3 1.7 0
v -0.3 1.8 0
v -0.2 0 0
v -0.2 0.2 0
v -0.2 0.4 0
v -0.2 1.4 0
v -0.2 1.5 0
v -0.2 1.6 0
v -0.2 1.7 0
v -0.2 1.8 0
v -0.1 0.2 0
v -0.1 0.4 0
v -0.1 0.5 0
v -0.1 1.3 0
v -0.1 1.4 0
v -0.1 1.5 0
v -0.1 1.7 0
v -0.1 1.8 0
v 0 0.5 0
v 0 1.3 0
v -0.4 1.8 -0.1
v -0.4 1.9 -0.1
v -0.3 1.8 -0.1
v -0.3 1.9 -0.1
v -0.3 2 -0.1
v -0.2 1.8 -0.1
v -0.2 1.9 -0.1
v -0.2 2 -0.1
v -0.1 1.8 -0.1
v -0.1 1.9 -0.1
v -0.3 2 -0.2
v -0.3 2.1 -0.2
v -0.2 1.9 -0.2
v -0.2 2 -0.2
v -0.2 2.1 -0.2
v -0.1 1.9 -0.2
v -0.1 2 -0.2
v -0.4 1.8 0.1
v -0.4 1.9 0.1
v -0.3 1.8 0.1
v -0.3 1.9 0.1
v -0.3 2 0.1
v -0.2 1.9 0.1
v -0.2 2 0.1
v -0.2 1.8 0
v -0.2 1.9 0
v -0.1 1.8 0
v -0.1 1.9 0
v -0.5 0.5 -0.1
v -0.5 1.3 -0.1
v -0.4 0.2 -0.1
v -0.4 0.4 -0.1
v -0.4 0.5 -0.1
v -0.4 1.3 -0.1
v -0.4 1.4 -0.1
v -0.4 1.5 -0.1
v -0.4 1.7 -0.1
v -0.4 1.8 -0.1
v -0.3 0 -0.1
v -0.3 0.2 -0.1
v -0.3 0.4 -0.1
v -0.3 1.4 -0.1
v -0.3 1.5 -0.1
v -0.3 1.6 -0.1
v -0.3 1.7 -0.1
v -0.3 1.8 -0.1
v -0.2 0 -0.1
v -0.2 0.2 -0.1
v -0.2 0.4 -0.1
v -0.2 1.4 -0.1
v -0.2 1.5 -0.1
v -0.2 1.6 -0.1
v -0.2 1.7 -0.1
v -0.2 1.8 -0.1
v -0.1 0.2 -0.1
v -0.1 0.4 -0.1
v -0.1 0.5 -0.1
v -0.1 1.3 -0.1
v -0.1 1.4 -0.1
v -0.1 1.5 -0.1
v -0.1 1.7 -0.1
v -0.1 1.8 -0.1
v 0 0.5 -0.1
v 0 1.3 -0.1
v -0.4 0.4 -0.2
v -0.4 1.4 -0.2
v -0.3 0.2 -0.2
v -0.3 0.4 -0.2
v -0.3 0.5 -0.2
v -0.3 1.3 -0.2
v -0.3 1.4 -0.2
v -0.3 1.5 -0.2
v -0.3 1.7 -0.2
v -0.3 1.8 -0.2
v -0.2 0.2 -0.2
v -0.2 0.4 -0.2
v -0.2 0.5 -0.2
v -0.2 1.3 -0.2
v -0.2 1.4 -0.2
v -0.2 1.5 -0.2
v -0.2 1.7 -0.2
v -0.2 1.8 -0.2
v -0.2 1.9 -0.2
v -0.1 0.4 -0.2
v -0.1 1.4 -0.2
v -0.1 1.8 -0.2
v -0.1 1.9 -0.2
v -0.4 1.8 -0.3
v -0.4 1.9 -0.3
v -0.3 0.5 -0.3
v -0.3 1.3 -0.3
v -0.3 1.9 -0.3
v -0.3 2 -0.3
v -0.3 2.1 -0.3
v -0.2 0.5 -0.3
v -0.2 1.3 -0.3
v -0.2 1.8 -0.3
v -0.2 1.9 -0.3
v -0.2 2 -0.3
v -0.2 2.1 -0.3
v -0.1 1.9 -0.3
v -0.1 2 -0.3
v -0.3 1.9 -0.4
v -0.3 2 -0.4
v -0.2 1.9 -0.4
v -0.2 2 -0.4
v -0.3 0 0
v -0.2 0 0
v -0.3 0 -0.1
v -0.2 0 -0.1
v -0.3 0.2 0.1
v -0.2 0.2 0.1
v -0.4 0.2 0
v -0.3 0.2 0
v -0.2 0.2 0
v -0.1 0.2 0
v -0.4 0.2 -0.1
v -0.3 0.2 -0.1
v -0.2 0.2 -0.1
v -0.1 0.2 -0.1
v -0.3 0.2 -0.2
v -0.2 0.2 -0.2
v -0.4 0.4 0.1
v -0.3 0.4 0.1
v -0.2 0.4 0.1
v -0.1 0.4 0.1
v -0.4 0.4 0
v -0.3 0.4 0
v -0.2 0.4 0
v -0.1 0.4 0
v -0.4 0.4 -0.1
v -0.3 0.4 -0.1
v -0.2 0.4 -0.1
v -0.1 0.4 -0.1
v -0.4 0.4 -0.2
v -0.3 0.4 -0.2
v -0.2 0.4 -0.2
v -0.1 0.4 -0.2
v -0.3 0.5 0.2
v -0.2 0.5 0.2
v -0.3 0.5 0.1
v -0.2 0.5 0.1
v -0.5 0.5 0
v -0.4 0.5 0
v -0.1 0.5 0
v 0 0.5 0
v -0.5 0.5 -0.1
v -0.4 0.5 -0.1
v -0.1 0.5 -0.1
v 0 0.5 -0.1
v -0.3 0.5 -0.2
v -0.2 0.5 -0.2
v -0.3 0.5 -0.3
v -0.2 0.5 -0.3
v -0.3 1.7 0.1
v -0.2 1.7 0.1
v -0.4 1.7 0
v -0.3 1.7 0
v -0.2 1.7 0
v -0.1 1.7 0
v -0.4 1.7 -0.1
v -0.3 1.7 -0.1
v -0.2 1.7 -0.1
v -0.1 1.7 -0.1
v -0.3 1.7 -0.2
v -0.2 1.7 -0.2
v -0.3 1.8 0.3
v -0.2 1.8 0.3
v -0.4 1.8 0.2
v -0.3 1.8 0.2
v -0.2 1.8 0.2
v -0.1 1.8 0.2
v -0.4 1.8 0.1
v -0.3 1.8 0.1
v -0.2 1.8 0.1
v -0.2 1.8 0
v -0.1 1.8 0
v -0.4 1.8 -0.1
v -0.3 1.8 -0.1
v -0.2 1.8 -0.1
v -0.1 1.8 -0.1
v -0.3 1.8 -0.2
v -0.2 1.8 -0.2
v -0.1 1.8 -0.2
v -0.4 1.8 -0.3
v -0.2 1.8 -0.3
v -0.2 1.9 -0.2
v -0.1 1.9 -0.2
v -0.3 1.9 -0.3
v -0.2 1.9 -0.3
v -0.1 1.9 -0.3
v -0.3 1.9 -0.4
v -0.2 1.9 -0.4
v -0.3 1.3 0.2
v -0.2 1.3 0.2
v -0.3 1.3 0.1
v -0.2 1.3 0.1
v -0.5 1.3 0
v -0.4 1.3 0
v -0.1 1.3 0
v 0 1.3 0
v -0.5 1.3 -0.1
v -0.4 1.3 -0.1
v -0.1 1.3 -0.1
v 0 1.3 -0.1
v -0.3 1.3 -0.2
v -0.2 1.3 -0.2
v -0.3 1.3 -0.3
v -0.2 1.3 -0.3
v -0.4 1.4 0.1
v -0.3 1.4 0.1
v -0.2 1.4 0.1
v -0.1 1.4 0.1
v -0.4 1.4 0
v -0.3 1.4 0
v -0.2 1.4 0
v -0.1 1.4 0
v -0.4 1.4 -0.1
v -0.3 1.4 -0.1
v -0.2 1.4 -0.1
v -0.1 1.4 -0.1
v -0.4 1.4 -0.2
v -0.3 1.4 -0.2
v -0.2 1.4 -0.2
v -0.1 1.4 -0.2
v -0.3 1.5 0.1
v -0.2 1.5 0.1
v -0.4 1.5 0
v -0.3 1.5 0
v -0.2 1.5 0
v -0.1 1.5 0
v -0.4 1.5 -0.1
v -0.3 1.5 -0.1
v -0.2 1.5 -0.1
v -0.1 1.5 -0.1
v -0.3 1.5 -0.2
v -0.2 1.5 -0.2
v -0.4 1.8 0
v -0.3 1.8 0
v -0.2 1.8 0
v -0.1 1.8 0
v -0.4 1.8 -0.1
v -0.3 1.8 -0.1
v -0.2 1.8 -0.1
v -0.1 1.8 -0.1
v -0.3 1.9 0.3
v -0.2 1.9 0.3
v -0.4 1.9 0.2
v -0.3 1.9 0.2
v -0.2 1.9 0.2
v -0.1 1.9 0.2
v -0.4 1.9 0.1
v -0.3 1.9 0.1
v -0.2 1.9 0.1
v -0.2 1.9 0
v -0.1 1.9 0
v -0.4 1.9 -0.1
v -0.3 1.9 -0.1
v -0.2 1.9 -0.1
v -0.1 1.9 -0.1
v -0.2 1.9 -0.2
v -0.1 1.9 -0.2
v -0.4 1.9 -0.3
v -0.3 1.9 -0.3
v -0.3 2 0.2
v -0.2 2 0.2
v -0.3 2 0.1
v -0.2 2 0.1
v -0.3 2 -0.1
v -0.2 2 -0.1
v -0.3 2 -0.2
v -0.2 2 -0.2
v -0.1 2 -0.2
v -0.3 2 -0.3
v -0.2 2 -0.3
v -0.1 2 -0.3
v -0.3 2 -0.4
v -0.2 2 -0.4
v -0.3 2.1 -0.2
v -0.2 2.1 -0.2
v -0.3 2.1 -0.3
v -0.2 2.1 -0.3

# faces
f 3/1/1 2/1/1 1/1/1
f 4/1/1 2/1/1 3/1/1
f 8/1/1 6/1/1 5/1/1
f 9/1/1 6/1/1 8/1/1
f 11/1/1 8/1/1 7/1/1
f 11/1/1 10/1/1 9/1/1
f 11/1/1 9/1/1 8/1/1
f 12/1/1 10/1/1 11/1/1
f 13/1/1 11/1/1 7/1/1
f 14/1/1 10/1/1 12/1/1
f 15/1/1 13/1/1 7/1/1
f 15/1/1 14/1/1 13/1/1
f 16/1/1 14/1/1 15/1/1
f 17/1/1 10/1/1 14/1/1
f 17/1/1 14/1/1 16/1/1
f 18/1/1 10/1/1 17/1/1
f 19/1/1 17/1/1 16/1/1
f 20/1/1 17/1/1 19/1/1
f 25/2/1 22/2/1 21/2/1
f 26/2/1 22/2/1 25/2/1
f 28/2/1 24/2/1 23/2/1
f 29/2/1 24/2/1 28/2/1
f 30/2/1 27/2/1 26/2/1
f 31/2/1 27/2/1 30/2/1
f 35/1/1 33/1/1 32/1/1
f 36/1/1 33/1/1 35/1/1
f 38/1/1 35/1/1 34/1/1
f 39/1/1 35/1/1 38/1/1
f 40/1/1 37/1/1 36/1/1
f 41/1/1 37/1/1 40/1/1
f 46/1/1 43/1/1 42/1/1
f 47/1/1 43/1/1 46/1/1
f 48/1/1 45/1/1 44/1/1
f 49/1/1 45/1/1 48/1/1
f 54/1/1 51/1/1 50/1/1
f 55/1/1 51/1/1 54/1/1
f 56/1/1 53/1/1 52/1/1
f 57/1/1 53/1/1 56/1/1
f 58/1/1 56/1/1 55/1/1
f 59/1/1 56/1/1 58/1/1
f 61/2/1 59/2/1 58/2/1
f 62/2/1 59/2/1 61/2/1
f 66/2/1 61/2/1 60/2/1
f 67/2/1 61/2/1 66/2/1
f 68/2/1 63/2/1 62/2/1
f 69/2/1 63/2/1 68/2/1
f 70/2/1 65/2/1 64/2/1
f 71/2/1 65/2/1 70/2/1
f 72/2/1 67/2/1 66/2/1
f 72/2/1 68/2/1 67/2/1
f 73/2/1 68/2/1 72/2/1
f 76/2/1 72/2/1 71/2/1
f 77/2/1 72/2/1 76/2/1
f 78/2/1 74/2/1 73/2/1
f 78/2/1 75/2/1 74/2/1
f 79/2/1 75/2/1 78/2/1
f 80/2/1 75/2/1 79/2/1
f 81/2/1 75/2/1 80/2/1
f 82/2/1 80/2/1 79/2/1
f 83/2/1 80/2/1 82/2/1
f 84/1/2 85/1/2 87/1/2
f 87/1/2 85/1/2 88/1/2
f 86/1/2 87/1/2 90/1/2
f 90/1/2 87/1/2 91/1/2
f 88/1/2 89/1/2 92/1/2
f 92/1/2 89/1/2 93/1/2
f 94/1/2 95/1/2 98/1/2
f 98/1/2 95/1/2 99/1/2
f 96/1/2 97/1/2 100/1/2
f 100/1/2 97/1/2 101/1/2
f 102/1/2 103/1/2 106/1/2
f 106/1/2 103/1/2 107/1/2
f 104/1/2 105/1/2 108/1/2
f 108/1/2 105/1/2 109/1/2
f 107/1/2 108/1/2 110/1/2
f 110/1/2 108/1/2 111/1/2
f 110/2/2 111/2/2 113/2/2
f 113/2/2 111/2/2 114/2/2
f 112/2/2 113/2/2 118/2/2
f 118/2/2 113/2/2 119/2/2
f 114/2/2 115/2/2 120/2/2
f 120/2/2 115/2/2 121/2/2
f 116/2/2 117/2/2 123/2/2
f 123/2/2 117/2/2 124/2/2
f 119/2/2 120/2/2 126/2/2
f 126/2/2 120/2/2 127/2/2
f 121/2/2 122/2/2 128/2/2
f 128/2/2 122/2/2 129/2/2
f 124/2/2 125/2/2 131/2/2
f 131/2/2 125/2/2 132/2/2
f 127/2/2 128/2/2 133/2/2
f 133/2/2 128/2/2 134/2/2
f 129/2/2 130/2/2 135/2/2
f 135/2/2 130/2/2 136/2/2
f 134/2/2 135/2/2 137/2/2
f 137/2/2 135/2/2 138/2/2
f 139/1/2 140/1/2 142/1/2
f 142/1/2 140/1/2 143/1/2
f 141/1/2 142/1/2 145/1/2
f 143/1/2 144/1/2 145/1/2
f 142/1/2 143/1/2 145/1/2
f 145/1/2 144/1/2 146/1/2
f 141/1/2 145/1/2 147/1/2
f 146/1/2 144/1/2 148/1/2
f 141/1/2 147/1/2 149/1/2
f 147/1/2 148/1/2 149/1/2
f 149/1/2 148/1/2 150/1/2
f 148/1/2 144/1/2 151/1/2
f 150/1/2 148/1/2 151/1/2
f 151/1/2 144/1/2 152/1/2
f 150/1/2 151/1/2 153/1/2
f 153/1/2 151/1/2 154/1/2
f 155/2/2 156/2/2 158/2/2
f 158/2/2 156/2/2 159/2/2
f 157/2/2 158/2/2 161/2/2
f 161/2/2 158/2/2 162/2/2
f 159/2/2 160/2/2 163/2/2
f 163/2/2 160/2/2 164/2/2
f 164/2/2 165/2/2 166/2/2
f 166/2/2 165/2/2 167/2/2
f 168/1/2 169/1/2 170/1/2
f 170/1/2 169/1/2 171/1/2
f 174/2/3 173/2/3 172/2/3
f 175/2/3 173/2/3 174/2/3
f 180/2/3 177/2/3 176/2/3
f 181/2/3 177/2/3 180/2/3
f 183/1/3 179/1/3 178/1/3
f 184/1/3 179/1/3 183/1/3
f 186/2/3 182/2/3 181/2/3
f 187/2/3 182/2/3 186/2/3
f 188/2/3 186/2/3 185/2/3
f 189/2/3 186/2/3 188/2/3
f 193/1/3 191/1/3 190/1/3
f 194/1/3 191/1/3 193/1/3
f 195/1/3 191/1/3 194/1/3
f 196/1/3 191/1/3 195/1/3
f 200/1/3 193/1/3 192/1/3
f 200/1/3 194/1/3 193/1/3
f 201/1/3 194/1/3 200/1/3
f 202/1/3 194/1/3 201/1/3
f 203/1/3 197/1/3 196/1/3
f 203/1/3 196/1/3 195/1/3
f 204/1/3 197/1/3 203/1/3
f 205/1/3 197/1/3 204/1/3
f 206/2/3 199/2/3 198/2/3
f 207/2/3 199/2/3 206/2/3
f 208/1/3 202/1/3 201/1/3
f 208/1/3 204/1/3 203/1/3
f 208/1/3 203/1/3 202/1/3
f 209/1/3 204/1/3 208/1/3
f 214/1/3 211/1/3 210/1/3
f 215/1/3 211/1/3 214/1/3
f 221/1/3 213/1/3 212/1/3
f 222/1/3 213/1/3 221/1/3
f 223/1/3 217/1/3 216/1/3
f 224/1/3 217/1/3 223/1/3
f 226/2/3 219/2/3 218/2/3
f 227/2/3 219/2/3 226/2/3
f 228/1/3 221/1/3 220/1/3
f 229/1/3 221/1/3 228/1/3
f 232/1/3 225/1/3 224/1/3
f 233/2/3 226/2/3 225/2/3
f 233/1/3 225/1/3 232/1/3
f 234/2/3 226/2/3 233/2/3
f 236/1/3 230/1/3 229/1/3
f 237/1/3 230/1/3 236/1/3
f 240/1/3 232/1/3 231/1/3
f 241/1/3 232/1/3 240/1/3
f 242/2/3 235/2/3 234/2/3
f 243/2/3 235/2/3 242/2/3
f 244/1/3 239/1/3 238/1/3
f 245/1/3 239/1/3 244/1/3
f 248/2/3 247/2/3 246/2/3
f 249/2/3 247/2/3 248/2/3
f 252/2/3 250/2/3 249/2/3
f 253/2/3 250/2/3 252/2/3
f 254/2/3 252/2/3 251/2/3
f 255/2/3 252/2/3 254/2/3
f 259/2/3 257/2/3 256/2/3
f 260/2/3 257/2/3 259/2/3
f 261/2/3 259/2/3 258/2/3
f 262/2/3 259/2/3 261/2/3
f 263/2/4 264/2/4 265/2/4
f 265/2/4 264/2/4 266/2/4
f 266/2/4 267/2/4 268/2/4
f 268/2/4 267/2/4 269/2/4
f 270/2/4 271/2/4 272/2/4
f 272/2/4 271/2/4 273/2/4
f 274/1/4 275/1/4 278/1/4
f 278/1/4 275/1/4 279/1/4
f 276/1/4 277/1/4 285/1/4
f 285/1/4 277/1/4 286/1/4
f 280/1/4 281/1/4 287/1/4
f 287/1/4 281/1/4 288/1/4
f 282/2/4 283/2/4 290/2/4
f 290/2/4 283/2/4 291/2/4
f 284/1/4 285/1/4 292/1/4
f 292/1/4 285/1/4 293/1/4
f 288/1/4 289/1/4 296/1/4
f 289/2/4 290/2/4 297/2/4
f 296/1/4 289/1/4 297/1/4
f 297/2/4 290/2/4 298/2/4
f 293/1/4 294/1/4 300/1/4
f 300/1/4 294/1/4 301/1/4
f 295/1/4 296/1/4 304/1/4
f 304/1/4 296/1/4 305/1/4
f 298/2/4 299/2/4 306/2/4
f 306/2/4 299/2/4 307/2/4
f 302/1/4 303/1/4 308/1/4
f 308/1/4 303/1/4 309/1/4
f 310/1/4 311/1/4 313/1/4
f 313/1/4 311/1/4 314/1/4
f 314/1/4 311/1/4 315/1/4
f 315/1/4 311/1/4 316/1/4
f 312/1/4 313/1/4 320/1/4
f 313/1/4 314/1/4 320/1/4
f 320/1/4 314/1/4 321/1/4
f 321/1/4 314/1/4 322/1/4
f 316/1/4 317/1/4 323/1/4
f 315/1/4 316/1/4 323/1/4
f 323/1/4 317/1/4 324/1/4
f 324/1/4 317/1/4 325/1/4
f 318/2/4 319/2/4 326/2/4
f 326/2/4 319/2/4 327/2/4
f 321/1/4 322/1/4 329/1/4
f 323/1/4 324/1/4 329/1/4
f 322/1/4 323/1/4 329/1/4
f 329/1/4 324/1/4 330/1/4
f 327/2/4 328/2/4 331/2/4
f 331/2/4 328/2/4 332/2/4
f 333/2/4 334/2/4 337/2/4
f 335/1/4 336/1/4 340/1/4
f 340/1/4 336/1/4 341/1/4
f 333/2/4 337/2/4 342/2/4
f 342/2/4 337/2/4 343/2/4
f 338/2/4 339/2/4 344/2/4
f 344/2/4 339/2/4 345/2/4
f 343/2/4 344/2/4 346/2/4
f 346/2/4 344/2/4 347/2/4
f 348/2/4 349/2/4 350/2/4
f 350/2/4 349/2/4 351/2/4
f 354/1/5 353/1/5 352/1/5
f 355/1/5 353/1/5 354/1/5
f 359/1/5 357/1/5 356/1/5
f 360/1/5 357/1/5 359/1/5
f 362/1/5 359/1/5 358/1/5
f 363/1/5 359/1/5 362/1/5
f 364/1/5 361/1/5 360/1/5
f 365/1/5 361/1/5 364/1/5
f 366/1/5 364/1/5 363/1/5
f 367/1/5 364/1/5 366/1/5
f 372/1/5 369/1/5 368/1/5
f 373/1/5 369/1/5 372/1/5
f 374/1/5 371/1/5 370/1/5
f 375/1/5 371/1/5 374/1/5
f 380/1/5 377/1/5 376/1/5
f 381/1/5 377/1/5 380/1/5
f 382/1/5 379/1/5 378/1/5
f 383/1/5 379/1/5 382/1/5
f 386/1/5 385/1/5 384/1/5
f 387/1/5 385/1/5 386/1/5
f 392/1/5 389/1/5 388/1/5
f 393/1/5 389/1/5 392/1/5
f 394/1/5 391/1/5 390/1/5
f 395/1/5 391/1/5 394/1/5
f 398/1/5 397/1/5 396/1/5
f 399/1/5 397/1/5 398/1/5
f 403/2/5 401/2/5 400/2/5
f 404/2/5 401/2/5 403/2/5
f 406/2/5 403/2/5 402/2/5
f 407/2/5 403/2/5 406/2/5
f 408/2/5 405/2/5 404/2/5
f 409/2/5 405/2/5 408/2/5
f 410/2/5 408/2/5 407/2/5
f 411/2/5 408/2/5 410/2/5
f 415/2/5 413/2/5 412/2/5
f 416/2/5 413/2/5 415/2/5
f 418/2/5 415/2/5 414/2/5
f 418/2/5 417/2/5 416/2/5
f 418/2/5 416/2/5 415/2/5
f 419/2/5 417/2/5 418/2/5
f 420/2/5 417/2/5 419/2/5
f 421/2/5 417/2/5 420/2/5
f 422/2/5 417/2/5 421/2/5
f 427/2/5 424/2/5 423/2/5
f 428/2/5 426/2/5 425/2/5
f 429/2/5 426/2/5 428/2/5
f 430/2/5 427/2/5 423/2/5
f 430/2/5 428/2/5 427/2/5
f 431/2/5 428/2/5 430/2/5
f 435/2/5 433/2/5 432/2/5
f 436/2/5 433/2/5 435/2/5
f 437/2/5 435/2/5 434/2/5
f 438/2/5 435/2/5 437/2/5
f 439/1/6 440/1/6 441/1/6
f 441/1/6 440/1/6 442/1/6
f 443/1/6 444/1/6 447/1/6
f 447/1/6 444/1/6 448/1/6
f 445/1/6 446/1/6 449/1/6
f 449/1/6 446/1/6 450/1/6
f 451/1/6 452/1/6 453/1/6
f 453/1/6 452/1/6 454/1/6
f 455/1/6 456/1/6 459/1/6
f 459/1/6 456/1/6 460/1/6
f 457/1/6 458/1/6 461/1/6
f 461/1/6 458/1/6 462/1/6
f 463/1/6 464/1/6 467/1/6
f 467/1/6 464/1/6 468/1/6
f 465/1/6 466/1/6 469/1/6
f 469/1/6 466/1/6 470/1/6
f 471/1/6 472/1/6 474/1/6
f 474/1/6 472/1/6 475/1/6
f 473/1/6 474/1/6 477/1/6
f 477/1/6 474/1/6 478/1/6
f 475/1/6 476/1/6 479/1/6
f 479/1/6 476/1/6 480/1/6
f 478/1/6 479/1/6 481/1/6
f 481/1/6 479/1/6 482/1/6
f 483/2/6 484/2/6 487/2/6
f 487/2/6 484/2/6 488/2/6
f 485/2/6 486/2/6 489/2/6
f 489/2/6 486/2/6 490/2/6
f 491/2/6 492/2/6 494/2/6
f 494/2/6 492/2/6 495/2/6
f 493/2/6 494/2/6 497/2/6
f 497/2/6 494/2/6 498/2/6
f 495/2/6 496/2/6 499/2/6
f 498/2/6 499/2/6 500/2/6
f 499/2/6 496/2/6 500/2/6
f 500/2/6 496/2/6 501/2/6
f 498/2/6 500/2/6 503/2/6
f 503/2/6 500/2/6 504/2/6
f 504/2/6 505/2/6 506/2/6
f 506/2/6 505/2/6 507/2/6
f 502/2/6 503/2/6 508/2/6
f 508/2/6 503/2/6 509/2/6
f 510/2/6 511/2/6 512/2/6
f 512/2/6 511/2/6 513/2/6
f 514/2/6 515/2/6 516/2/6
f 516/2/6 515/2/6 517/2/6
f 517/2/6 518/2/6 520/2/6
f 520/2/6 518/2/6 521/2/6
f 519/2/6 520/2/6 522/2/6
f 522/2/6 520/2/6 523/2/6
f 524/2/6 525/2/6 526/2/6
f 526/2/6 525/2/6 527/2/6
